<?xml version="1.0" encoding="utf-8"?>
<!-- Generator: Adobe Illustrator 26.5.0, SVG Export Plug-In . SVG Version: 6.00 Build 0)  -->
<svg version="1.1" xmlns="http://www.w3.org/2000/svg" xmlns:xlink="http://www.w3.org/1999/xlink" x="0px" y="0px"
	 viewBox="0 0 150 50" style="enable-background:new 0 0 150 50;" xml:space="preserve">
<style type="text/css">
	.st0{display:none;}
	.st1{display:inline;fill:#58B4AE;}
	.st2{fill:#AAAAAA;}
	.st3{fill:#A4EBF3;}
</style>
<g id="Layer_2" class="st0">
	<rect class="st1" width="150.8" height="50"/>
</g>
<g id="Layer_1">
	<path class="st2" d="M55,32.1c1.2-2.8,2.4-5.5,3.6-8.3c1.1-2.6,2.2-5.1,3.3-7.7c0.1-0.2,0.3-0.4,0.5-0.6c0.1,0.2,0.3,0.4,0.4,0.6
		c2.3,5.3,4.5,10.6,6.7,15.9c0.1,0.2,0.2,0.3,0.4,0.5c0-0.2,0-0.5,0-0.7c0-4.6,0-9.1,0-13.7c0-1.2-0.3-2-1.5-2.3
		c-0.1,0-0.1-0.1-0.3-0.3c1.6,0,3.1,0,4.7,0c-0.1,0.1-0.1,0.2-0.2,0.2c-1.4,0.3-1.6,1.2-1.6,2.5c0,5.1,0,10.1,0,15.2
		c0,1.5,0.2,1.8,1.6,2.3c0.1,0,0.1,0.1,0.2,0.2c-0.2,0-0.4,0.1-0.5,0.1c-1.7,0-3.5,0-5.2,0c-0.7,0-1-0.2-1.3-0.8
		c-1.7-4-3.4-8.1-5.1-12.1c-0.1-0.1-0.1-0.3-0.2-0.5c-0.7,1.6-1.3,3.1-2,4.7c-1.2,2.7-2.3,5.4-3.5,8.2c-0.2,0.5-0.4,0.6-0.9,0.6
		c-1.6,0-3.3,0-4.9,0c-0.2,0-0.4,0-0.6,0c0-0.1,0.1-0.2,0.1-0.2c1.5-0.3,1.7-1.3,1.7-2.6c0-5,0-10.1,0-15.1c0-1.4-0.1-1.7-1.5-2.2
		c-0.1,0-0.2-0.1-0.4-0.3c2.8,0,5.3,0,7.9,0c0,0,0,0.1,0.1,0.1c-0.2,0.1-0.4,0.2-0.6,0.3c-0.7,0.2-1.1,0.8-1.1,1.5
		c0,4.9,0,9.7,0,14.6c0,0.3,0,0.6,0,1c0,0,0.1,0,0.1,0C54.7,32.7,54.9,32.4,55,32.1z"/>
	<path class="st2" d="M124.6,22.4c2.2-0.6,4.2-1.2,6.3-1.8c0,0.8,0,1.5,0,2.1c1-1.5,2.4-2.2,4.2-2.2c1.8,0.1,3.1,0.8,3.7,2.7
		c0.1-0.2,0.2-0.4,0.3-0.5c1.2-2,3.9-2.8,6-1.7c1.5,0.8,2,2.2,2.1,3.8c0,2.9,0,5.8,0,8.7c0,1.5,0.1,1.7,1.5,2.3
		c0.1,0,0.1,0.1,0.3,0.2c-2.1,0-4.1,0-6.2,0c0-0.6,0-1.1,0-1.7c0-3,0-6,0-9.1c0-0.4,0-0.9-0.1-1.3c-0.2-1-1-1.5-2.1-1.4
		c-1,0.1-1.6,0.9-1.6,1.9c0,3,0,5.9,0,8.9c0,1.1-0.1,2.2,1.3,2.6c-1.9,0-3.8,0-5.7,0c0-0.3,0-0.5,0-0.8c0-3.3,0-6.6,0-9.9
		c0-0.5,0-1-0.2-1.5c-0.3-1-1-1.4-2-1.3c-0.8,0.1-1.5,0.9-1.5,1.8c0.1,2.9,0,5.9,0,8.8c0,1.1-0.3,2.4,1.4,2.7
		c-0.1,0.1-0.1,0.1-0.2,0.2c-1.9,0-3.7,0-5.7,0c0-0.2,0-0.4,0-0.6c0-3.4,0-6.8,0-10.3C126.5,23.2,126.5,23.2,124.6,22.4z"/>
	<path class="st2" d="M101.8,36c-2,0-4,0-6.1,0c0-0.6,0-1.3,0-2c-0.1,0.1-0.2,0.1-0.2,0.1c-1.5,3-6,3.2-8,0.2
		c-2.2-3.3-1.9-8.7,0.7-11.7c1.8-2,4.7-2.7,7.2-1.7c0.1,0,0.1,0,0.3,0c0-0.9,0-1.8,0-2.6c0-0.8-0.5-1.3-1.4-1.4c-0.3,0-0.6,0-1-0.1
		c0-0.1,0-0.1-0.1-0.2c2.2-0.7,4.5-1.3,6.9-2c0,0.3,0,0.6,0,0.8c0,5.6,0,11.3,0,16.9C100.1,33.9,99.8,35.5,101.8,36z M95.7,27.8
		C95.7,27.8,95.7,27.8,95.7,27.8c0-1.6,0-3.2,0-4.8c0-0.9-0.5-1.5-1.4-1.6c-1-0.1-2,0.4-2.5,1.6c-1.3,3.1-1.3,6.3,0,9.4
		c0.2,0.5,0.6,0.9,1,1.3c0.6,0.5,1.4,0.6,2.1,0.2c0.7-0.3,0.9-0.9,0.9-1.6C95.7,30.8,95.7,29.3,95.7,27.8z"/>
	<path class="st2" d="M125.1,36c-0.1,0-0.1,0.1-0.2,0.1c-1.9,0-3.9,0-5.9,0c0-0.7,0-1.3,0-2.2c-0.2,0.4-0.4,0.5-0.5,0.7
		c-1.5,2.2-4.6,2.6-6.6,0.9c-1-0.9-1.3-2-1.3-3.3c0-2.3,0-4.7,0-7c0-2,0-2-1.9-2.8c2.2-0.6,4.2-1.2,6.3-1.8c0,0.3,0,0.6,0,0.8
		c0,3.3,0,6.6,0,10c0,0.4,0,0.8,0.1,1.3c0.1,0.9,0.6,1.5,1.4,1.6c0.9,0.2,1.9-0.2,2.3-0.9c0.1-0.2,0.2-0.5,0.2-0.7
		c0-2.6,0-5.3,0-7.9c0-1.4-0.2-1.7-1.5-2.3c1.9-0.6,3.8-1.2,5.8-1.8c0,0.3,0,0.5,0,0.7c0,4,0,8,0,12c0,1.2,0.2,2.2,1.6,2.5
		C125,35.8,125,35.9,125.1,36z"/>
	<path class="st2" d="M85.3,27.2c-3.1,0-6.1,0-9.1,0c-0.4,2.2,0.9,4.6,2.9,5.6c2.1,1,3.5,0.5,6-2.5c0,0.1,0.1,0.2,0.1,0.3
		c-0.7,3.7-2.9,6.3-7,5.9c-2.6-0.3-4.3-1.9-5.1-4.3c-1-2.8-0.9-5.6,0.5-8.3c2-3.9,7.8-4.5,10.4-1.1C84.9,24,85.3,25.5,85.3,27.2z
		 M76,26.3c2,0,3.7,0,5.7,0c-0.2-1.2-0.3-2.3-0.6-3.4c-0.2-0.8-0.8-1.5-1.8-1.5c-1-0.1-1.7,0.4-2.1,1.3C76.7,23.8,76.4,25.1,76,26.3
		z"/>
	<path class="st2" d="M103.2,36c0-0.3,0-0.5,0-0.8c0-3.4,0-6.7,0-10.1c0-2,0-2-1.9-2.8c2.2-0.6,4.2-1.2,6.3-1.8c0,1.1,0,2.1,0,3.1
		c0,3.2,0,6.5,0,9.7c0,1.2,0.3,2.1,1.6,2.4c0.1,0,0.1,0.1,0.4,0.2C107.3,36,105.3,36,103.2,36z"/>
	<path class="st3" d="M102.8,17.3c0-1.4,1.1-2.5,2.4-2.5c1.4,0,2.5,1.1,2.5,2.4c0,1.4-1.1,2.5-2.5,2.5
		C103.9,19.8,102.8,18.7,102.8,17.3z"/>
	<path class="st3" d="M1.7,25c0-6.6,5.2-11.8,11.8-11.8c6.4,0,11.5,5.4,11.5,11.9c0,6.5-5.3,11.7-11.8,11.7
		C6.9,36.8,1.7,31.4,1.7,25z"/>
	<path class="st3" d="M37.2,26.8c-0.1,2.3-0.4,4.5-1.5,6.5c-0.4,0.7-0.9,1.4-1.5,2c-1.2,1.1-2.8,1.1-4,0c-1.3-1.2-2-2.7-2.4-4.4
		c-0.9-3.7-0.8-7.3,0.9-10.7c0.4-0.7,0.9-1.4,1.5-2c1.2-1.2,2.8-1.1,4.1,0c1.6,1.4,2.2,3.3,2.6,5.3C37,24.5,37.1,25.7,37.2,26.8z"/>
	<path class="st3" d="M40.2,29.1c0.1-1.1,0.3-2.5,0.5-3.9c0-0.3,0.2-0.7,0.4-1c0.2-0.4,0.6-0.4,0.7,0c0.3,0.7,0.5,1.4,0.6,2.2
		c0.3,2.3,0.3,4.7-0.2,7c-0.1,0.3-0.2,0.7-0.3,1c-0.1,0.2-0.3,0.3-0.5,0.5c-0.2-0.2-0.4-0.3-0.5-0.5c-0.2-0.7-0.4-1.5-0.5-2.3
		C40.3,31.2,40.3,30.3,40.2,29.1z"/>
</g>
</svg>
