<?xml version="1.0" encoding="utf-8"?>
<!-- Generator: Adobe Illustrator 26.5.0, SVG Export Plug-In . SVG Version: 6.00 Build 0)  -->
<svg version="1.1" id="Layer_1" xmlns="http://www.w3.org/2000/svg" xmlns:xlink="http://www.w3.org/1999/xlink" x="0px" y="0px"
	 viewBox="0 0 24 24" style="enable-background:new 0 0 24 24;" xml:space="preserve">
<style type="text/css">
	.st0{fill:#FFFFFF;}
</style>
<path class="st0" d="M5.8,3c-1.6,0-3,1.4-3,3v12c0,1.6,1.4,3,3,3h12c1.6,0,3-1.4,3-3V6c0-1.6-1.4-3-3-3H5.8z M5.8,5h12
	c0.6,0,1,0.4,1,1v12c0,0.6-0.4,1-1,1h-12c-0.6,0-1-0.4-1-1V6C4.8,5.4,5.2,5,5.8,5z M11.8,7v7c0,0.6-0.4,1-1,1s-1-0.4-1-1s0.4-1,1-1
	v-2c-1.6,0-3,1.4-3,3s1.4,3,3,3s3-1.4,3-3v-3.8c0.6,0.4,1.3,0.8,2,0.8V9c0,0-0.7-0.2-1.2-0.6S13.8,7.4,13.8,7H11.8z"/>
</svg>
