<?xml version="1.0" encoding="utf-8"?>
<!-- Generator: Adobe Illustrator 26.5.0, SVG Export Plug-In . SVG Version: 6.00 Build 0)  -->
<svg version="1.1" id="Layer_1" xmlns="http://www.w3.org/2000/svg" xmlns:xlink="http://www.w3.org/1999/xlink" x="0px" y="0px"
	 viewBox="0 0 65.1 100" style="enable-background:new 0 0 65.1 100;" xml:space="preserve">
<style type="text/css">
	.st0{fill:#106D6A;}
	.st1{fill:#D4DCE5;}
	.st2{fill:#05CCC0;}
	.st3{fill:#F2F6F8;}
	.st4{fill:#0AA596;}
	.st5{fill:#FBFBFC;}
	.st6{fill:#070E35;}
</style>
<path class="st0" d="M5.7,50.1c-1.2-3-2.7-6-3.6-9.2C-2.2,26.5,4.8,10.8,18.2,4c16.1-8.1,35.2-2,43.4,14c4.6,8.9,4.6,18.1,0.7,27.3
	c-2.7,6.5-6.4,12.4-10.9,17.9c-4.9,6-10,11.7-15.1,17.5c-1.8,2.1-4.8,2.1-6.6,0.1c-6.1-6.8-12.4-13.5-17.8-21
	c-1.1-1.6-2.2-3.2-3.3-4.7C7.7,53.4,6.7,51.8,5.7,50.1z M61.3,27.1c0-0.1,0-0.1,0-0.1c-0.2-1.1-0.3-2.2-0.7-3.3
	C56.3,10.3,43.4,2.1,29.3,3.7C16.9,5.2,6,14.7,4,28.8c0,0.2,0.1,0.4,0.2,0.7c-0.1,1.3-0.5,2.6-0.3,3.8c0.3,2.4,0.6,4.9,1.2,7.2
	c1.3,4.9,3.7,9.2,6.4,13.4c2.5,3.8,5.1,7.5,8.2,10.8c0.1,0.1,0.1,0.3,0.2,0.4c2,2.3,4,4.6,6,6.9c1.5,1.7,3,3.3,4.5,4.9
	c0.4,0.5,0.7,1,1.2,1.4c1,1.1,1.8,1.1,2.8,0c1.6-1.8,3.2-3.6,4.8-5.3c6-6.5,11.6-13.3,16.2-20.9c2.1-3.5,4-7.2,5.2-11.1
	c1.2-3.8,1.8-7.7,1-11.7c-0.1-0.5-0.2-1-0.3-1.5c0-0.1,0-0.1,0-0.1C61.3,27.5,61.3,27.3,61.3,27.1z"/>
<path class="st1" d="M32.9,99.5c-4.4,0-8.7-0.3-13-1.1c-1.7-0.3-3.3-1-4.9-1.5c-0.1,0-0.1-0.1-0.2-0.1c-1.5-1-1.4-1.7,0.2-2.6
	c1.7-0.9,3.5-1.2,5.3-1.6c5.7-1.1,11.4-1.1,17.1-0.9c3.9,0.1,7.8,0.5,11.5,1.7c0.9,0.3,1.7,0.8,2.5,1.4c0.6,0.4,0.6,1,0,1.5
	c-0.5,0.4-1.2,0.8-1.8,1.1c-2.7,1-5.5,1.4-8.3,1.6C38.6,99.1,35.8,99.3,32.9,99.5z"/>
<path class="st2" d="M19.7,64.7c-3-3.4-5.7-7-8.2-10.8c-2.7-4.2-5.2-8.5-6.4-13.4c-0.6-2.4-1-4.8-1.2-7.2c-0.1-1.3,0.2-2.6,0.3-3.8
	c0.2-0.7,0.5-1.4,0.7-2.1c1.6-5.5,4.5-10.1,8.7-13.9c0.2-0.2,0.5-0.3,0.7-0.4c-0.1,0.2-0.2,0.4-0.3,0.5c-5.7,6-8.3,13.1-7.4,21.5
	c0.1,0.6,0,1.2,0,1.7c0,0.6-0.1,1.1,0,1.7c0.8,5.1,2.7,9.8,6.2,13.6c1.6,1.7,3.3,3.1,5.4,4.1l0,0c0.1,0.1,0.3,0.2,0.4,0.3l0,0
	c0.1,0,0.1,0.1,0.2,0.1c0.4,0.2,0.7,0.4,1.1,0.6c5,2.2,10.2,2.9,15.6,2.3c2.2-0.2,4.4-0.9,6.5-1.4c0.5-0.2,1-0.4,1.6-0.5l0.1,0
	c0,0,0,0,0,0c0.4-0.2,0.8-0.4,1.2-0.5l0.1,0l0.1,0c0.1-0.1,0.3-0.1,0.4-0.2l0,0c1.2-0.6,2.3-1.3,3.5-1.9c0,0,0.1,0,0.1-0.1
	c0.9-0.6,1.9-1.2,2.7-1.9c5-4.2,7.3-9.6,7.5-16.1c0-0.6,0-1.2,0-1.8c0.7-7.2-1.2-13.6-5.6-19.3c-0.6-0.8-1.3-1.6-2-2.4
	c0.3,0.2,0.7,0.3,0.9,0.6c3,2.6,5.2,5.8,6.9,9.4c0,0.1,0.1,0.2,0.1,0.2c0,0.1,0,0.1,0.1,0.1c0.1,0.2,0.2,0.4,0.3,0.6
	c0,0,0,0.1,0,0.1c0.2,0.6,0.5,1.3,0.7,1.9c0,0.1,0,0.2,0.1,0.3c0.2,0.6,0.3,1.2,0.5,1.7c0.1,0.4,0.3,0.7,0.4,1.1
	c0.8,4,0.2,7.9-1,11.7c-1.2,3.9-3.1,7.6-5.2,11.1c-4.6,7.6-10.2,14.4-16.2,20.9c-1.6,1.8-3.2,3.6-4.8,5.3c-1,1.1-1.8,1.1-2.8,0
	c-0.4-0.5-0.8-1-1.2-1.4c0.3-0.2,0.7-0.3,0.9-0.6c3.1-3.4,6.3-6.7,9.4-10.1c1-1.1,1.9-2.2,2.8-3.4c0.2-0.2,0.2-0.9-0.1-1.1
	c-0.3-0.3-0.8-0.3-1.2-0.3c-0.2,0-0.4,0.3-0.6,0.4c-4.2,2.8-8.5,5.6-13.7,6.5c-1.9,0.3-3.7,0-5.2-1.2c-0.9-0.7-1.7-1.5-2.6-2.2
	C20,64.8,19.8,64.8,19.7,64.7z"/>
<path class="st3" d="M14.3,13.1c-0.2,0.1-0.5,0.2-0.7,0.4c-4.3,3.8-7.2,8.4-8.7,13.9c-0.2,0.7-0.5,1.4-0.7,2.1C4.1,29.2,4,29,4,28.8
	c2.1-14,12.9-23.6,25.3-25c14-1.7,27,6.5,31.3,19.9c0.3,1.1,0.4,2.2,0.7,3.3c-0.2-0.1-0.4-0.2-0.5-0.4c0-0.1,0-0.2-0.1-0.3
	c0.1-0.8-0.1-1.4-0.7-1.9c0,0-0.1-0.1,0-0.1c-0.1-0.2-0.2-0.4-0.3-0.6c0,0-0.1-0.1-0.1-0.1c0-0.1-0.1-0.2-0.1-0.2
	c-1.7-3.6-3.9-6.7-6.9-9.4c-0.3-0.2-0.6-0.4-0.9-0.6c-4.5-4.1-9.7-6.8-15.8-7.4C27.6,5,20.5,7.6,14.3,13.1z"/>
<path class="st4" d="M19.7,64.7c0.2,0,0.4,0,0.5,0.1c0.9,0.7,1.7,1.4,2.6,2.2c1.5,1.3,3.3,1.6,5.2,1.2c5.2-0.8,9.4-3.6,13.7-6.5
	c0.2-0.1,0.4-0.4,0.6-0.4c0.4,0,1,0.1,1.2,0.3c0.2,0.2,0.2,0.9,0.1,1.1c-0.9,1.2-1.8,2.3-2.8,3.4c-3.1,3.4-6.2,6.8-9.4,10.1
	c-0.2,0.2-0.6,0.4-0.9,0.6c-1.5-1.6-3-3.2-4.5-4.9c-2-2.3-4-4.6-6-6.9C19.8,65,19.7,64.9,19.7,64.7z"/>
<path class="st1" d="M60.7,26.5c0.2,0.1,0.4,0.2,0.5,0.4c0,0,0,0.1,0,0.1c0,0.2,0,0.5,0,0.7c0.1,0,0.1,0.1,0,0.1
	c0,0.1-0.1,0.2-0.1,0.4C61.1,27.7,60.9,27.1,60.7,26.5z"/>
<path class="st3" d="M61.2,28.3c0-0.1,0.1-0.2,0.1-0.4c0.1,0.5,0.2,1,0.3,1.5C61.5,29,61.4,28.7,61.2,28.3z"/>
<path class="st3" d="M61.3,27.8c0-0.2,0-0.5,0-0.7C61.3,27.3,61.3,27.5,61.3,27.8z"/>
<path class="st0" d="M14.3,13.1C20.5,7.6,27.6,5,35.8,5.8c6.1,0.6,11.3,3.3,15.8,7.4c0.7,0.8,1.3,1.6,2,2.4
	c4.4,5.7,6.4,12.1,5.6,19.3c-0.1,0.6,0,1.2,0,1.8c-0.3,1.1-0.6,2.1-0.9,3.2c-1.2,4.3-3.4,8-6.5,11.2c-0.9,0.9-1.5,1-2.6,0.5
	c-0.5-1.1-0.4-1.9,0.5-2.8c2-2,3.5-4.3,4.6-6.8c0.6-1.4,0.4-1.9-0.9-2.7c0-0.1-0.1-0.2-0.1-0.3c-2.1-2.2-4.1-4.3-6.2-6.5
	c-1.3-1.4-2.7-2.8-4.2-4.3c-0.1,0.7-0.1,1.2-0.2,1.6c-0.2,2.1-0.9,3.9-2.3,5.5c-2.5,3-6.9,3.1-9.2,0.3c-1.7-2.1-2-4.6-1.2-7.1
	c0.2-0.5,0.7-1,1-1.5c0.1,0.6,0,1.2,0.2,1.7c0.4,1.3,0.6,2.6,1.3,3.7c1.5,2.5,4.4,2.4,5.9-0.1c0.9-1.5,1.1-3.3,1-5
	c0-0.4-0.1-0.8-0.1-1.2c-0.1-1.7-0.8-3-2.3-3.9c-3.7-2.3-7.9-1.5-10.4,2.1c-0.8,1.2-1.5,2.4-2.3,3.6c-1.1,1.7-2.6,2.6-4.5,3
	c-0.4,0.1-0.8,0.1-1.3,0.2c-0.3,2.1-1.2,3.5-3.3,4c1,2.9,3.5,4.7,6.3,4.8c2,0,4,0.1,6-0.1c2-0.2,3.9-0.8,5.9-1.2c1.1,3,2.3,6,3.2,9
	c0.4,1.4,0.5,3,0.3,4.5c-0.3,2.7-2.5,4.5-5.7,4.9c-4.7,0.7-9.1-0.3-13.2-2.7c-1.4-1.1-2.9-2.2-4.1-3.4c-3.2-3.3-5.4-7.2-6.7-11.6
	c-0.3-0.9-0.5-1.8-0.8-2.6c0-0.6,0-1.2,0-1.7C5.7,26.7,8.3,19.6,14,13.6C14.1,13.4,14.2,13.2,14.3,13.1z M19.8,43
	c-2.4-0.6-4.6-1.8-6.1-3.8c-1.7-2.3-2.3-4.9-2.3-7.6c0-2.1,1.7-3.7,3.8-3.8c0.9,0,1.9-0.1,2.8,0c1.9,0.1,3.3-0.7,4.3-2.2
	c0.6-0.9,1.1-1.8,1.7-2.7c3.7-6,11.8-6.9,16.8-1.9c4.6,4.7,9.2,9.4,13.8,14.1c0.5,0.5,0.9,1.1,1.5,1.7c0.6-3.4,0.7-6.5-0.1-9.6
	c-2.2-9-7.7-15.1-16.7-17.6c-8.7-2.5-16.6-0.3-23.1,6.1c-8.8,8.8-9.1,22.7-0.9,32.1c1.2,1.3,2.7,2.4,4,3.6c1.7,0.7,3.3,1.4,5,2.2
	c0.3,0.1,0.7,0.1,1,0.2c2.5,0.4,4.9,0.8,7.3-0.5c1.2-0.7,1.6-1.6,1.2-3.4c-0.6-2.2-1.3-4.4-2.1-6.5c-0.1-0.3-0.7-0.6-1.1-0.6
	c-2.1,0.2-4.2,0.5-6.3,0.8C22.8,43.4,21.3,43.2,19.8,43z"/>
<path class="st5" d="M18.2,54.4c4.1,2.4,8.5,3.4,13.2,2.7c3.2-0.5,5.3-2.2,5.7-4.9c0.2-1.5,0.1-3.1-0.3-4.5c-0.9-3.1-2.1-6-3.2-9
	c0.3,0,0.5,0,0.8-0.1c0.1,0.2,0.2,0.4,0.4,0.8c0.2,0,0.7-0.1,1.1-0.2c0,0,0.1,0.1,0.1,0.1c0,0.1,0.1,0.1,0.1,0.2
	c0.1,0.2,0.3,0.4,0.4,0.6c-0.3,0.6,0,0.8,0.5,0.9c0.1,0.2,0.2,0.3,0.2,0.5c0,0.7,0,1.3,0.7,1.6l0,0c0,1.1,0,2.2,0.9,3
	c0,0.1,0,0.2,0,0.3c0.1,0.5,0.2,0.9,0.3,1.4c0,0.2,0,0.4,0,0.6c-0.3,0.3-0.5,0.6-0.6,0.7c0,1.5,0,2.9,0,4.3c-0.1,0-0.2,0-0.3,0
	c0-1.2,0-2.4,0-3.5c-0.1,0-0.2,0-0.2,0c0,1.1,0,2.3,0,3.4c0,1.9,1.5,3,3.5,2.2c0.7-0.3,1.5-0.8,2.3,0.1c0.1,0.1,0.5,0.1,1,0.1
	c-0.4-0.2-0.6-0.3-0.9-0.4c0.5-0.3,0.9-0.4,1.2-0.7c0.2-0.1,0.3-0.4,0.4-0.6l0,0c0.5-0.1,1-0.1,1.5-0.3c0.1,0,0.2-0.3,0.3-0.5l0,0
	c0.8,0.4,0.8-0.3,1-0.7c0.1,0,0.1-0.1,0.2-0.1c0.6,0.5,0.5,1.1-0.2,1.8c0.2,0.3,0.4,0.5,0.6,0.8c0,0.1,0,0.1-0.1,0.1
	c-0.8,0.1-1.1-0.3-1.2-1c0,0.3-0.1,0.7-0.1,0.9c-0.5,0-1-0.1-1.5-0.1c0.4,0.8,0.8,1.4-0.4,1.6c-0.1,0-0.2,0.3-0.3,0.5c0,0,0,0,0,0
	c-0.1,0.1-0.3,0.1-0.4,0.2L45,57c0,0-0.1,0-0.1,0c-0.4,0.2-0.8,0.4-1.2,0.5c0,0,0,0,0,0s-0.1,0-0.1,0c-0.6-0.1-1.1-0.2-1.7-0.3
	c0,0.3,0.1,0.6,0.1,0.8c-2.2,0.5-4.3,1.1-6.5,1.4c-5.4,0.6-10.6-0.1-15.6-2.3c-0.4-0.2-0.7-0.4-1.1-0.6c-0.1,0-0.1-0.1-0.2-0.1
	c0,0,0,0,0,0c-0.1-0.1-0.3-0.2-0.4-0.3c0,0,0,0,0,0C18.2,55.6,18.2,55,18.2,54.4z"/>
<path class="st3" d="M18.2,54.4c0,0.6,0,1.1,0,1.7c-2.1-0.9-3.9-2.4-5.4-4.1c-3.6-3.9-5.4-8.5-6.2-13.6c-0.1-0.5,0-1.1,0-1.7
	c0.3,0.9,0.5,1.8,0.8,2.6c1.3,4.4,3.5,8.3,6.7,11.6C15.3,52.3,16.8,53.3,18.2,54.4z"/>
<path class="st3" d="M49,54.8c-0.2-0.3-0.4-0.5-0.6-0.8c0.7-0.7,0.7-1.2,0.2-1.8c0.2-0.2,0.5-0.4,0.7-0.6c1,0.5,1.7,0.3,2.6-0.5
	c3.1-3.2,5.2-6.9,6.5-11.2c0.3-1.1,0.6-2.1,0.9-3.2c-0.2,6.4-2.5,11.9-7.5,16.1C50.9,53.6,49.9,54.2,49,54.8z"/>
<path class="st3" d="M45.4,56.8c0.1-0.2,0.2-0.5,0.3-0.5c1.2-0.2,0.7-0.9,0.4-1.6c0.6,0,1,0.1,1.5,0.1c0-0.2,0.1-0.6,0.1-0.9
	c0.1,0.7,0.4,1.2,1.2,1C47.8,55.6,46.6,56.2,45.4,56.8z"/>
<path class="st3" d="M42.1,58.1c0-0.3-0.1-0.5-0.1-0.8c0.6,0.1,1.1,0.2,1.7,0.3C43.1,57.7,42.6,57.9,42.1,58.1z"/>
<path class="st1" d="M60,24.3c0.6,0.5,0.8,1.2,0.7,1.9C60.4,25.6,60.2,25,60,24.3z"/>
<path class="st3" d="M43.7,57.5c0.4-0.2,0.8-0.4,1.2-0.5C44.5,57.2,44.1,57.4,43.7,57.5z"/>
<path class="st1" d="M59.6,23.6c0.1,0.2,0.2,0.4,0.3,0.6C59.8,24,59.7,23.8,59.6,23.6z"/>
<path class="st3" d="M18.3,56.2c0.1,0.1,0.3,0.2,0.4,0.3C18.6,56.4,18.4,56.3,18.3,56.2z"/>
<path class="st3" d="M45.1,57c0.1-0.1,0.3-0.1,0.4-0.2C45.3,56.9,45.2,56.9,45.1,57z"/>
<path class="st1" d="M59.5,23.2c0,0.1,0.1,0.2,0.1,0.2C59.5,23.3,59.5,23.3,59.5,23.2z"/>
<path class="st3" d="M18.7,56.4c0.1,0,0.1,0.1,0.2,0.1C18.8,56.5,18.8,56.5,18.7,56.4z"/>
<path class="st5" d="M25.3,53.7c-0.3-0.1-0.7-0.1-1-0.2c0-0.3,0.1-0.6,0-0.8c-0.2-1.3-0.8-2.8-2.7-2.7c-1.1,0.1-1.7,0.6-2.3,1.4
	c-1.3-1.2-2.8-2.2-4-3.6c-8.2-9.3-7.8-23.3,0.9-32.1c6.4-6.5,14.3-8.6,23.1-6.1c8.9,2.5,14.5,8.6,16.7,17.6c0.7,3.1,0.7,6.2,0.1,9.6
	c-0.6-0.7-1-1.2-1.5-1.7c-4.6-4.7-9.2-9.4-13.8-14.1c-5-5-13-4.1-16.8,1.9c-0.6,0.9-1.1,1.8-1.7,2.7c-1,1.5-2.4,2.4-4.3,2.2
	c-0.9-0.1-1.9,0-2.8,0c-2.1,0.1-3.8,1.7-3.8,3.8c0,2.7,0.7,5.4,2.3,7.6c1.5,2.1,3.7,3.2,6.1,3.8c-0.2,0.7-0.4,1.3-0.5,2
	c-0.2,1.1,0.5,2.1,1.6,2.4c1,0.3,2.2-0.2,2.6-1.3c0.3-0.8,0.6-1.7,0.9-2.5c2.1-0.3,4.2-0.6,6.3-0.8c0.3,0,1,0.3,1.1,0.6
	c0.8,2.2,1.5,4.3,2.1,6.5c0.5,1.8,0,2.6-1.2,3.4c-0.1-0.2-0.3-0.4-0.3-0.7c-0.1-0.6-0.1-1.2-0.1-1.8C32,50.9,31.9,51,31.8,51
	c-0.3-0.1-0.6-0.2-1-0.4c0.2-0.2,0.3-0.3,0.4-0.3c0-0.1,0-0.2-0.1-0.3c-0.6,0-1.1,0-1.7,0c-0.6,0-1.1,0-1.7,0
	c-0.6,0-1.1,0.1-1.7,0.1c0.1,0.1,0.1,0.2,0.2,0.3c-0.1,0.3-0.3,0.6-0.4,0.9c0-0.1,0-0.3,0-0.4c0,0-0.1,0-0.1,0c0,0.1,0,0.3,0,0.4
	c0,0,0,0.1,0,0.1c0,0,0-0.1,0-0.1c0.1,0,0.1,0,0.2,0C25.6,52.2,25.5,52.9,25.3,53.7z"/>
<path class="st2" d="M49.3,51.7c-0.2,0.2-0.5,0.4-0.7,0.6c-0.1,0-0.1,0.1-0.2,0.1c-0.3,0.2-0.6,0.5-1,0.7c0,0,0,0,0,0
	c-0.6,0.3-1.2,0.5-1.8,0.8c0,0,0,0,0,0c-1.7,0.4-3.5,0.8-5.2,1.1c-0.7,0.1-1.1-0.2-1.4-0.8c0-0.1,0-0.2,0-0.4
	c0.6-1.8,0.7-3.7,0.3-5.6c0-0.2,0-0.4,0-0.6c-0.1-0.5-0.2-0.9-0.3-1.4c0-0.1,0-0.2,0-0.3c-0.3-1-0.6-2-0.9-3c0,0,0,0,0,0
	c-0.2-0.5-0.5-1-0.7-1.6c-0.1-0.2-0.2-0.3-0.2-0.5c-0.2-0.3-0.3-0.6-0.5-0.9c-0.1-0.2-0.3-0.4-0.4-0.6c0-0.1-0.1-0.1-0.1-0.2
	c0-0.1,0-0.1-0.1-0.1c-0.3-0.8-0.9-0.8-1.5-0.6c-0.3,0-0.5,0-0.8,0.1c-2,0.4-3.9,0.9-5.9,1.2c-2,0.2-4,0.1-6,0.1
	c1.2-2.1,1.3-4.1,0.2-6.3c-0.1-0.2,0.1-0.7,0.3-0.9c0.7-0.8,1.5-1.5,2.3-2.3c0.2-0.2,0.5-0.4,0.7-0.7c0,0.1,0.1,0.1,0.1,0.2
	c0.5,1,1.3,1.3,2.1,1c0.7-0.3,1.2-1,1.1-1.8c-0.1-0.9-0.8-1.3-1.9-1.3c-0.1,0-0.1,0-0.2,0c0.7-0.8,1.2-1.8,2-2.5
	c1.3-1.1,2.8-1.9,4.6-1.7c-0.9,0.9-1.9,1.8-1.7,3.3c-0.4,0.5-0.9,0.9-1,1.5c-0.9,2.6-0.5,5,1.2,7.1c2.3,2.8,6.7,2.7,9.2-0.3
	c1.4-1.6,2-3.5,2.3-5.5c0.1-0.5,0.1-0.9,0.2-1.6c1.5,1.6,2.8,2.9,4.2,4.3c-0.3,1-0.7,2-1,3c-0.4,1.9,0.3,3.4,1.8,4.3
	c1.8,1,4.3,0.7,5.5-0.5c1.3,0.8,1.5,1.4,0.9,2.7c-1.1,2.6-2.6,4.9-4.6,6.8C48.9,49.8,48.8,50.6,49.3,51.7z"/>
<path class="st3" d="M25.2,29.9c-0.2,0.2-0.5,0.4-0.7,0.7c-0.8,0.7-1.6,1.5-2.3,2.3c-0.2,0.2-0.4,0.7-0.3,0.9
	c1.1,2.1,1.1,4.2-0.2,6.3c-2.8-0.1-5.3-1.9-6.3-4.8c2.1-0.5,3-2,3.3-4c0.4-0.1,0.9-0.1,1.3-0.2c1.9-0.4,3.5-1.3,4.5-3
	c0.8-1.2,1.5-2.4,2.3-3.6c2.6-3.6,6.7-4.4,10.4-2.1c1.5,0.9,2.2,2.2,2.3,3.9c0,0.4,0.1,0.8,0.1,1.2c-0.2-0.2-0.4-0.4-0.5-0.6
	c-1.6-1.9-3.5-3.2-6.1-3c-1.8-0.2-3.3,0.6-4.6,1.7c-0.8,0.7-1.3,1.6-2,2.5C25.6,28.4,25.1,29,25.2,29.9z"/>
<path class="st4" d="M32.9,23.8c2.6-0.2,4.5,1.1,6.1,3c0.2,0.2,0.4,0.4,0.5,0.6c0,1.8-0.1,3.5-1,5c-1.5,2.5-4.4,2.6-5.9,0.1
	c-0.7-1.1-0.9-2.5-1.3-3.7c-0.2-0.6-0.1-1.2-0.2-1.7C31,25.6,32,24.7,32.9,23.8z"/>
<path class="st4" d="M53.5,39.3c-1.2,1.2-3.8,1.4-5.5,0.5c-1.5-0.8-2.2-2.4-1.8-4.3c0.2-1,0.6-2,1-3c2.1,2.2,4.1,4.3,6.2,6.5
	C53.4,39.1,53.4,39.2,53.5,39.3z"/>
<path class="st3" d="M25.3,53.7c0.2-0.8,0.3-1.6,0.5-2.3c0,0,0,0,0,0c0.1-0.3,0.3-0.6,0.4-0.9c-0.1-0.1-0.1-0.2-0.2-0.3
	c0.6,0,1.1-0.1,1.7-0.1c0.6,0,1.1,0,1.7,0c0.6,0,1.1,0,1.7,0c0,0.1,0,0.2,0.1,0.3c-0.1,0.1-0.2,0.1-0.4,0.3c0.4,0.1,0.7,0.3,1,0.4
	c0.1-0.1,0.2-0.2,0.3-0.3c0,0.6,0.1,1.2,0.1,1.8c0,0.2,0.2,0.5,0.3,0.7C30.2,54.5,27.8,54.1,25.3,53.7z"/>
<path class="st4" d="M24.4,43.6c-0.3,0.8-0.6,1.7-0.9,2.5c-0.4,1-1.6,1.6-2.6,1.3c-1.1-0.3-1.8-1.2-1.6-2.4c0.1-0.7,0.3-1.3,0.5-2
	C21.3,43.2,22.8,43.4,24.4,43.6z"/>
<path class="st3" d="M19.3,51.4c0.6-0.7,1.2-1.3,2.3-1.4c2-0.1,2.5,1.3,2.7,2.7c0,0.3,0,0.6,0,0.8C22.6,52.8,20.9,52.1,19.3,51.4z"
	/>
<path class="st3" d="M39,54.4c0.3,0.6,0.7,0.9,1.4,0.8c1.8-0.4,3.5-0.8,5.2-1.1c-0.1,0.2-0.2,0.5-0.4,0.6c-0.3,0.2-0.7,0.4-1.2,0.7
	c0.4,0.2,0.5,0.2,0.9,0.4c-0.5,0-0.9,0-1-0.1c-0.7-0.9-1.6-0.4-2.3-0.1c-2,0.8-3.5-0.4-3.5-2.2c0-1.1,0-2.3,0-3.4c0.1,0,0.2,0,0.2,0
	c0,1.2,0,2.4,0,3.5c0.1,0,0.2,0,0.3,0c0-1.4,0-2.8,0-4.3c0.1-0.1,0.3-0.4,0.6-0.7c0.3,1.9,0.3,3.7-0.3,5.6
	C38.9,54.1,38.9,54.2,39,54.4z"/>
<path class="st3" d="M38,43.2c0.3,1,0.6,2,0.9,3C38,45.3,38,44.2,38,43.2z"/>
<path class="st3" d="M34.3,38.7c0.6-0.2,1.2-0.2,1.5,0.6c-0.4,0.1-0.9,0.1-1.1,0.2C34.6,39.1,34.4,38.9,34.3,38.7z"/>
<path class="st3" d="M45.6,54c0.6-0.3,1.2-0.5,1.8-0.8c-0.1,0.2-0.2,0.5-0.3,0.5C46.6,53.9,46.1,53.9,45.6,54z"/>
<path class="st3" d="M37.2,41.6c0.2,0.5,0.5,1,0.7,1.6C37.2,42.9,37.2,42.2,37.2,41.6z"/>
<path class="st3" d="M47.4,53.2c0.3-0.2,0.6-0.5,1-0.7C48.2,52.9,48.2,53.5,47.4,53.2z"/>
<path class="st3" d="M36.5,40.2c0.2,0.3,0.3,0.6,0.5,0.9C36.5,41,36.2,40.7,36.5,40.2z"/>
<path class="st3" d="M38.9,46.4c0.1,0.5,0.2,0.9,0.3,1.4C39.1,47.4,39,46.9,38.9,46.4z"/>
<path class="st3" d="M35.9,39.4c0,0.1,0.1,0.1,0.1,0.2C36,39.5,36,39.5,35.9,39.4z"/>
<path class="st3" d="M25.6,51.4c0-0.1,0-0.3,0-0.4c0,0,0.1,0,0.1,0c0,0.1,0,0.3,0,0.4c0,0,0,0,0,0C25.8,51.4,25.7,51.4,25.6,51.4
	L25.6,51.4z"/>
<path class="st3" d="M25.6,51.4C25.6,51.4,25.6,51.4,25.6,51.4C25.6,51.4,25.6,51.4,25.6,51.4C25.6,51.4,25.6,51.4,25.6,51.4z"/>
<path class="st6" d="M25.2,29.9c0-0.9,0.4-1.5,1.2-1.9c0.1,0,0.1,0,0.2,0c1.1,0,1.8,0.5,1.9,1.3c0.1,0.8-0.3,1.5-1.1,1.8
	c-0.8,0.3-1.5-0.1-2.1-1C25.2,30,25.2,29.9,25.2,29.9z"/>
<path class="st5" d="M39,54.4c0-0.1,0-0.2,0-0.4C38.9,54.1,38.9,54.2,39,54.4z"/>
<g>
	<g>
		<g id="Layer_1_00000152246935144722558840000017445567102468752556_">
			<g>
				<g id="Layer_2_00000029767563154637768740000000423831854953443518_">
					<path class="st2" d="M-121.1,48c-0.3-1.1-0.1-2.2,0.2-3.3"/>
				</g>
				<g id="Layer_3_00000034806849865754671120000016045318212079874729_">
				</g>
			</g>
		</g>
	</g>
</g>
</svg>
